<?xml version="1.0" encoding="utf-8"?>
<svg viewBox="56.857 37.276 112.1189 82.865" width="112.119" height="82.865" xmlns="http://www.w3.org/2000/svg">
  <path xmlns="http://www.w3.org/2000/svg" style="fill: #fff;" d="M 168.711 101.321 C 168.446 100.258 167.22 99.676 165.425 99.378 C 165.35 95.999 165.168 92.096 165.168 89.096 C 165.168 82.453 161.626 74.041 156.313 70.057 C 154.444 68.654 152.295 67.137 149.897 65.753 C 148.392 61.343 141.479 41.634 137.547 39.67 C 133.118 37.456 112.917 37.276 112.917 37.276 C 112.917 37.276 93.279 37.455 88.85 39.67 C 84.923 41.632 77.578 61.299 75.961 65.739 C 73.553 67.126 71.395 68.65 69.52 70.057 C 64.206 74.042 60.665 82.454 60.665 89.097 C 60.665 92.096 60.483 95.999 60.408 99.378 C 58.613 99.677 57.387 100.258 57.121 101.321 C 56.68 103.091 56.678 110.178 58.008 111.062 C 58.369 111.302 62.607 111.347 68.577 111.284 C 69.36 116.329 72.902 120.141 77.158 120.141 C 81.505 120.141 85.099 116.162 85.778 110.957 C 99.401 110.625 112.918 110.179 112.918 110.179 C 112.918 110.179 126.433 110.625 140.056 110.957 C 140.735 116.162 144.329 120.141 148.676 120.141 C 152.932 120.141 156.474 116.33 157.256 111.284 C 163.228 111.348 167.466 111.303 167.827 111.062 C 169.155 110.178 169.153 103.091 168.711 101.321 Z M 161.12 83.76 C 161.12 86.365 159.007 88.478 156.4 88.478 C 153.795 88.478 151.682 86.366 151.682 83.76 C 151.682 81.153 153.794 79.041 156.4 79.041 C 159.007 79.042 161.12 81.154 161.12 83.76 Z M 159.89 94.502 C 158.521 94.502 153.259 94.46 152.061 94.417 C 150.863 94.375 151.334 93.86 151.676 93.86 C 152.019 93.86 154.671 93.603 156.254 93.645 C 157.839 93.689 160.533 93.645 160.533 93.645 C 161.432 93.633 161.26 94.502 159.89 94.502 Z M 159.89 97.026 C 158.521 97.026 153.259 96.984 152.061 96.941 C 150.863 96.898 151.334 96.384 151.676 96.384 C 152.019 96.384 154.671 96.126 156.254 96.17 C 157.839 96.212 160.533 96.17 160.533 96.17 C 161.432 96.158 161.26 97.026 159.89 97.026 Z M 159.89 91.634 C 158.521 91.634 153.259 91.592 152.061 91.55 C 150.863 91.507 151.334 90.992 151.676 90.992 C 152.019 90.992 154.671 90.736 156.254 90.778 C 157.839 90.821 160.533 90.778 160.533 90.778 C 161.432 90.768 161.26 91.634 159.89 91.634 Z M 159.579 77.521 C 158.551 76.933 157.377 76.569 156.108 76.569 C 152.234 76.569 149.095 79.708 149.095 83.579 C 149.095 85.304 149.741 86.861 150.771 88.081 C 149.34 86.817 148.419 84.987 148.419 82.925 C 148.419 79.112 151.511 76.019 155.325 76.019 C 156.938 76.02 158.402 76.595 159.579 77.521 Z M 135.976 66.284 C 142.022 66.284 147.375 66.66 147.375 66.66 C 147.375 66.66 137.53 67.282 132.522 66.908 C 127.513 66.535 116.976 66.533 116.976 66.533 C 117.497 66.408 129.93 66.284 135.976 66.284 Z M 121.002 61.875 C 123.984 61.632 127.694 61.359 128.71 61.407 C 129.411 61.44 133.041 61.993 136.633 62.449 L 121.002 61.875 Z M 89.219 42.227 C 93.108 40.603 113.328 40.072 113.328 40.072 C 113.328 40.072 133.548 40.603 137.437 42.227 C 141.327 43.851 146.068 62.796 146.068 62.796 L 144.468 62.737 C 144.636 62.643 144.664 62.561 144.664 62.561 C 144.664 62.561 132.525 60.681 130.917 60.628 C 129.307 60.576 126.715 60.229 122.469 61.009 C 120.804 61.315 119.022 61.56 117.471 61.744 L 113.901 61.613 C 113.85 61.607 108.282 61.016 104.184 60.641 C 103.757 56.499 100.258 53.269 96.003 53.269 C 91.462 53.269 87.78 56.951 87.78 61.493 C 87.78 61.633 87.8 61.766 87.808 61.902 C 85.619 62.293 83.692 62.563 82.877 62.672 C 82.623 62.707 82.484 62.726 82.473 62.727 L 80.587 62.796 C 80.59 62.796 85.328 43.851 89.219 42.227 Z M 113.635 89.342 C 113.635 89.342 112.916 86.344 112.916 80.574 C 112.916 74.804 110.894 68.259 111.392 67.592 C 111.89 66.926 112.916 66.26 112.916 66.26 C 113.69 67.371 115.877 67.592 115.877 67.592 C 115.877 67.592 114.009 68.036 113.635 69.257 C 113.262 70.478 113.635 89.342 113.635 89.342 Z M 105.706 61.873 L 104.207 61.927 C 104.21 61.869 104.213 61.809 104.217 61.75 C 104.708 61.793 105.207 61.833 105.706 61.873 Z M 97.909 61.222 C 98.337 61.222 99.867 61.364 101.808 61.538 C 101.806 61.7 101.797 61.858 101.783 62.017 L 90.283 62.441 C 90.262 62.314 90.262 62.182 90.25 62.054 C 93.214 61.671 96.896 61.222 97.909 61.222 Z M 90.202 61.442 C 90.229 58.26 92.816 55.688 96.005 55.688 C 98.848 55.688 101.207 57.731 101.708 60.428 C 100.936 60.368 100.354 60.334 100.08 60.338 C 98.471 60.362 95.865 60.139 91.661 61.122 C 91.181 61.232 90.693 61.339 90.202 61.442 Z M 87.854 62.528 L 86.231 62.589 C 86.241 62.587 86.874 62.5 87.843 62.371 C 87.849 62.422 87.848 62.477 87.854 62.528 Z M 92.324 66.402 C 97.741 66.775 109.137 66.777 109.137 66.777 C 108.577 66.902 95.128 67.026 88.588 67.026 C 82.049 67.026 76.258 66.65 76.258 66.65 C 76.258 66.65 86.908 66.029 92.324 66.402 Z M 81.361 72.998 C 83.347 75.177 83.776 84.131 85.516 88.728 C 86.762 92.027 113.333 92.439 112.841 92.436 C 112.841 92.436 138.241 92.193 139.98 87.596 C 141.718 82.999 142.336 75.177 144.322 72.998 C 146.307 70.821 150.83 69.369 150.83 69.369 C 150.83 69.369 144.991 71.548 143.75 76.871 C 142.508 82.194 143.629 91.316 136.182 93.01 C 133.691 93.576 130.256 94.034 126.785 94.392 C 125.555 95.013 122.884 95.178 126.975 95.117 C 131.462 95.053 134.943 94.86 138.749 94.469 C 142.556 94.077 152.821 93.147 148.368 93.938 C 143.915 94.73 127.535 96.377 125.045 96.477 C 122.556 96.576 121.419 97.533 118.065 96.754 C 114.711 95.977 97.255 96.03 91.443 96.17 C 85.63 96.31 79.933 95.351 79.933 95.351 C 79.933 95.351 84.577 95.09 90.215 94.784 C 95.853 94.477 101.673 94.767 102.318 94.788 C 102.379 94.79 102.595 94.784 102.94 94.77 C 98.268 94.377 92.97 93.8 89.502 93.01 C 82.055 91.316 83.176 82.194 81.933 76.871 C 80.692 71.547 74.854 69.369 74.854 69.369 C 74.854 69.369 79.377 70.821 81.361 72.998 Z M 70.909 76.02 C 74.724 76.02 77.816 79.112 77.816 82.926 C 77.816 84.988 76.895 86.818 75.463 88.082 C 76.493 86.861 77.139 85.305 77.139 83.58 C 77.139 79.709 74 76.57 70.126 76.57 C 68.857 76.57 67.683 76.934 66.656 77.522 C 67.831 76.595 69.297 76.02 70.909 76.02 Z M 73.77 94.417 C 72.572 94.46 67.31 94.502 65.94 94.502 C 64.571 94.502 64.4 93.634 65.297 93.645 C 65.297 93.645 67.991 93.689 69.576 93.645 C 71.159 93.603 73.811 93.86 74.154 93.86 C 74.498 93.86 74.968 94.374 73.77 94.417 Z M 73.77 96.941 C 72.572 96.985 67.31 97.026 65.94 97.026 C 64.571 97.026 64.4 96.158 65.297 96.171 C 65.297 96.171 67.991 96.213 69.576 96.171 C 71.159 96.127 73.811 96.385 74.154 96.385 C 74.498 96.384 74.968 96.898 73.77 96.941 Z M 73.77 91.55 C 72.572 91.592 67.31 91.634 65.94 91.634 C 64.571 91.634 64.4 90.768 65.297 90.779 C 65.297 90.779 67.991 90.822 69.576 90.779 C 71.159 90.737 73.811 90.993 74.154 90.993 C 74.498 90.992 74.968 91.506 73.77 91.55 Z M 69.431 79.041 C 72.036 79.041 74.149 81.154 74.149 83.762 C 74.149 86.366 72.037 88.479 69.431 88.479 C 66.824 88.479 64.712 86.367 64.712 83.762 C 64.713 81.154 66.825 79.041 69.431 79.041 Z M 69.512 111.339 L 71.031 111.364 C 71.618 114.944 73.795 117.841 76.643 118.966 C 73.139 118.681 70.262 115.516 69.512 111.339 Z M 93.872 107.299 C 90.771 107.299 66.639 107.964 62.212 107.964 C 57.784 107.964 58.891 106.634 58.669 104.42 C 58.446 102.207 59.556 102.429 61.105 101.322 C 62.655 100.216 67.968 100.436 67.968 100.436 C 67.968 100.436 98.289 99.811 105.375 99.712 C 112.46 99.614 157.638 100.436 157.638 100.436 C 157.638 100.436 149.889 101.322 145.239 101.544 C 140.59 101.766 121.992 100.812 103.172 101.697 C 84.352 102.583 79.039 101.1 75.274 101.544 C 71.509 101.987 67.304 102.429 67.083 103.314 C 66.862 104.2 68.856 104.864 75.497 105.528 C 82.139 106.193 98.966 106.857 98.966 106.857 C 98.966 106.857 96.973 107.299 93.872 107.299 Z M 153.322 103.535 C 153.322 103.535 136.936 104.863 128.745 103.756 C 128.745 103.756 138.266 103.756 143.026 103.756 C 147.787 103.756 153.322 103.535 153.322 103.535 Z M 126.861 107.964 L 103.172 107.964 L 103.172 102.649 L 126.861 102.649 L 126.861 107.964 Z M 149.188 118.965 C 151.972 117.866 154.116 115.073 154.759 111.604 L 156.273 111.577 C 155.46 115.637 152.627 118.686 149.188 118.965 Z M 166.164 109.402 C 163.617 109.734 128.524 108.737 128.524 108.737 C 128.524 108.737 151.217 108.293 154.428 108.184 C 157.639 108.073 163.773 108.184 163.773 108.184 C 163.773 108.184 165.565 107.961 165.565 105.86 C 165.565 103.756 165.609 101.652 165.609 101.652 C 165.609 101.652 165.387 100.658 163.617 100.767 C 161.846 100.878 161.846 100.878 161.846 100.878 C 161.846 100.878 165.387 100.102 166.384 100.656 C 167.38 101.209 167.27 102.315 167.27 104.199 C 167.27 105.949 167.709 109.201 166.164 109.402 Z"/>
</svg>